# xmcd
#
# Track frame offsets: 
#        150
#        13613
#        26307
#        37977
#        48897
#        62720
#        73572
#        84034
#        97039
#        107196
#        120501
#        136228
#        149517
#        161501
#        181961
#        196691
#        218942
#        234257
#        261918
#        280765
#        296056
#        309916
#        325470
#
# Disc length: 4519 seconds
#
# Revision: 0
# Processed by: cddbd v1.5.2PL0 Copyright (c) Steve Scherf et al.
# Submitted via: ExactAudioCopy v0.99pb4
#
DISCID=3e11a517
DTITLE=Doris Allen - A Shell Of A Woman
DYEAR=2008
DGENRE=Soul
TTITLE0=A Shell Of A Woman
TTITLE1=Kiss Yourself For Me
TTITLE2=Let A Little Love In
TTITLE3=A Place In My Heart
TTITLE4=Them Changes
TTITLE5=Bright Star
TTITLE6=Hanging Heavy In My Mind
TTITLE7=I'll Just Keep Loving You
TTITLE8=Candy From A Baby
TTITLE9=Treat Me Like A Woman
TTITLE10=I Don't Want To Cry
TTITLE11=So Good To Be Together
TTITLE12=Full Time Fool
TTITLE13=Night Time Is The Right Time
TTITLE14=Let's Walk Down The Street Together
TTITLE15=A Shell Of A Woman (1986 Version)
TTITLE16=Clean Up Woman
TTITLE17=Birmingham Jail
TTITLE18=Baby It's Cold Outside
TTITLE19=You Left The Water Running
TTITLE20=Tit For Tat
TTITLE21=What's Wrong With Me Loving You
TTITLE22=Ashes Won't Burn
EXTD=
EXTT0=
EXTT1=
EXTT2=
EXTT3=
EXTT4=
EXTT5=
EXTT6=
EXTT7=
EXTT8=
EXTT9=
EXTT10=
EXTT11=
EXTT12=
EXTT13=
EXTT14=
EXTT15=
EXTT16=
EXTT17=
EXTT18=
EXTT19=
EXTT20=
EXTT21=
EXTT22=
PLAYORDER=
